<svg width="174" height="32" viewBox="0 0 174 32" fill="none" xmlns="http://www.w3.org/2000/svg">
<path d="M20.3142 29.3337C20.8263 28.7612 21.1628 28.0533 21.2834 27.2947C21.404 26.5361 21.3036 25.7588 20.9943 25.0558C20.6849 24.3527 20.1797 23.7535 19.5389 23.3299C18.8981 22.9063 18.1489 22.6762 17.3809 22.667" stroke="#18E198" stroke-width="2.5" stroke-linecap="round" stroke-linejoin="round"/>
<path d="M21.334 26.6663C21.334 25.6055 21.7554 24.5881 22.5056 23.8379C23.2557 23.0878 24.2731 22.6663 25.334 22.6663H26.6673C27.3746 22.6663 28.0528 22.3854 28.5529 21.8853C29.053 21.3852 29.334 20.7069 29.334 19.9997V17.333C29.334 15.9185 28.7721 14.562 27.7719 13.5618C26.7717 12.5616 25.4151 11.9997 24.0007 11.9997V5.33301" stroke="#18E198" stroke-width="2.5" stroke-linecap="round" stroke-linejoin="round"/>
<path d="M24 17.333H24.0133" stroke="#18E198" stroke-width="2.5" stroke-linecap="round" stroke-linejoin="round"/>
<path d="M23.9993 8.00033C22.5849 8.00033 21.2283 8.56223 20.2281 9.56242C19.2279 10.5626 18.666 11.9192 18.666 13.3337C16.1907 13.3337 13.8167 14.317 12.0664 16.0673C10.316 17.8177 9.33268 20.1916 9.33268 22.667C9.33268 16.0003 14.666 16.0003 14.666 8.66699C14.666 7.87906 14.5108 7.09884 14.2093 6.37089C13.9078 5.64294 13.4658 4.9815 12.9087 4.42435C12.3515 3.8672 11.6901 3.42524 10.9621 3.12371C10.2342 2.82219 9.45395 2.66699 8.66602 2.66699C7.87808 2.66699 7.09787 2.82219 6.36992 3.12371C5.64196 3.42524 4.98053 3.8672 4.42337 4.42435C3.86622 4.9815 3.42427 5.64294 3.12274 6.37089C2.82121 7.09884 2.66602 7.87906 2.66602 8.66699C2.66602 9.55105 3.01721 10.3989 3.64233 11.024C4.26745 11.6491 5.11529 12.0003 5.99935 12.0003C6.8834 12.0003 7.73125 11.6491 8.35637 11.024C8.98149 10.3989 9.33268 9.55105 9.33268 8.66699C9.33268 13.3337 3.99935 14.667 3.99935 22.667C3.99935 26.4003 6.93268 29.3337 10.666 29.3337H23.9993" stroke="#18E198" stroke-width="2.5" stroke-linecap="round" stroke-linejoin="round"/>
<path d="M46.46 23.32C45.18 23.32 44.1267 23.12 43.3 22.72C42.4867 22.3067 41.88 21.7667 41.48 21.1C41.08 20.4333 40.86 19.7067 40.82 18.92H43.38C43.4333 19.36 43.5733 19.7667 43.8 20.14C44.04 20.5133 44.3933 20.8133 44.86 21.04C45.3267 21.2667 45.9133 21.38 46.62 21.38C47.5 21.38 48.1933 21.1867 48.7 20.8C49.22 20.4133 49.48 19.92 49.48 19.32C49.48 18.7467 49.2933 18.3267 48.92 18.06C48.56 17.78 48.0933 17.5733 47.52 17.44L44.56 16.78C43.9067 16.62 43.32 16.4 42.8 16.12C42.28 15.84 41.8667 15.4667 41.56 15C41.2667 14.5333 41.12 13.9467 41.12 13.24C41.12 12.4 41.3533 11.6733 41.82 11.06C42.2867 10.4333 42.9267 9.94667 43.74 9.6C44.5667 9.25333 45.5267 9.08 46.62 9.08C47.86 9.08 48.8667 9.28 49.64 9.68C50.4267 10.08 51.0067 10.6 51.38 11.24C51.7667 11.8667 51.98 12.5333 52.02 13.24H49.52C49.4933 12.8533 49.3667 12.4933 49.14 12.16C48.9267 11.8267 48.6 11.5533 48.16 11.34C47.72 11.1267 47.1533 11.02 46.46 11.02C45.5933 11.02 44.9133 11.2 44.42 11.56C43.9267 11.9067 43.68 12.3733 43.68 12.96C43.68 13.4667 43.8533 13.84 44.2 14.08C44.56 14.3067 45.0267 14.4867 45.6 14.62L48.56 15.3C49.2267 15.4467 49.8267 15.6733 50.36 15.98C50.8933 16.2867 51.3067 16.6933 51.6 17.2C51.9067 17.6933 52.06 18.3133 52.06 19.06C52.06 19.94 51.82 20.7 51.34 21.34C50.8733 21.9667 50.22 22.4533 49.38 22.8C48.5533 23.1467 47.58 23.32 46.46 23.32ZM52.7706 17.64C52.7706 16.6 52.9706 15.7133 53.3706 14.98C53.784 14.2333 54.324 13.6667 54.9906 13.28C55.6706 12.88 56.424 12.68 57.2506 12.68C57.9173 12.68 58.5173 12.8067 59.0506 13.06C59.5973 13.3 60.044 13.66 60.3906 14.14C60.7506 14.6067 60.9773 15.1733 61.0706 15.84L60.6106 15.36V12.92H62.9306V26.52H60.5106V20.56L61.0706 20.08C60.884 21.0667 60.4373 21.84 59.7306 22.4C59.024 22.96 58.1706 23.24 57.1706 23.24C56.3573 23.24 55.6173 23.0467 54.9506 22.66C54.284 22.26 53.7506 21.6933 53.3506 20.96C52.964 20.2133 52.7706 19.32 52.7706 18.28V17.64ZM57.8106 14.6C57.0373 14.6 56.4106 14.8667 55.9306 15.4C55.464 15.9333 55.2306 16.68 55.2306 17.64V18.28C55.2306 19.24 55.4706 19.9867 55.9506 20.52C56.4306 21.04 57.0573 21.3 57.8306 21.3C58.604 21.3 59.244 21.04 59.7506 20.52C60.2573 20 60.5106 19.2867 60.5106 18.38V17.52C60.5106 16.92 60.384 16.4067 60.1306 15.98C59.8906 15.54 59.564 15.2 59.1506 14.96C58.7506 14.72 58.304 14.6 57.8106 14.6ZM73.5414 12.92V23H71.2414V20.94H71.4614C71.1814 21.66 70.7547 22.2267 70.1814 22.64C69.6081 23.04 68.9081 23.24 68.0814 23.24C67.4147 23.24 66.8081 23.1067 66.2614 22.84C65.7281 22.5733 65.3014 22.16 64.9814 21.6C64.6614 21.0267 64.5014 20.3 64.5014 19.42V12.92H66.9214V19.06C66.9214 19.7933 67.1014 20.3533 67.4614 20.74C67.8214 21.1133 68.3014 21.3 68.9014 21.3C69.5814 21.3 70.1214 21.0667 70.5214 20.6C70.9214 20.1333 71.1214 19.48 71.1214 18.64V12.92H73.5414ZM74.6667 17.76C74.6667 16.7067 74.8801 15.8 75.3067 15.04C75.7334 14.28 76.3267 13.7 77.0867 13.3C77.8467 12.8867 78.7067 12.68 79.6667 12.68C80.6134 12.68 81.4467 12.8733 82.1667 13.26C82.8867 13.6467 83.4467 14.2133 83.8467 14.96C84.2467 15.7067 84.4467 16.6133 84.4467 17.68V18.44H76.2867V16.8H82.3667L82.0467 17.1C82.0467 16.26 81.8201 15.6133 81.3667 15.16C80.9267 14.6933 80.3334 14.46 79.5867 14.46C78.8267 14.46 78.2201 14.7 77.7667 15.18C77.3134 15.6467 77.0867 16.3067 77.0867 17.16V18.48C77.0867 19.4133 77.3334 20.14 77.8267 20.66C78.3201 21.18 78.9534 21.44 79.7267 21.44C80.3401 21.44 80.8334 21.3067 81.2067 21.04C81.5801 20.76 81.8267 20.42 81.9467 20.02H84.2667C84.0801 21.0067 83.5867 21.7933 82.7867 22.38C81.9867 22.9533 80.9601 23.24 79.7067 23.24C78.6934 23.24 77.8067 23.04 77.0467 22.64C76.2867 22.24 75.7001 21.6667 75.2867 20.92C74.8734 20.1733 74.6667 19.28 74.6667 18.24V17.76ZM85.2339 17.64C85.2339 16.6 85.4339 15.7133 85.8339 14.98C86.2472 14.2333 86.7872 13.6667 87.4539 13.28C88.1339 12.88 88.8872 12.68 89.7139 12.68C90.3806 12.68 90.9806 12.8067 91.5139 13.06C92.0606 13.3 92.5072 13.66 92.8539 14.14C93.2139 14.6067 93.4406 15.1733 93.5339 15.84L92.9739 15.36V9.08H95.3939V23H93.0739V20.56L93.5339 20.08C93.3472 21.0667 92.9006 21.84 92.1939 22.4C91.4872 22.96 90.6339 23.24 89.6339 23.24C88.8206 23.24 88.0806 23.0467 87.4139 22.66C86.7472 22.26 86.2139 21.6933 85.8139 20.96C85.4272 20.2133 85.2339 19.32 85.2339 18.28V17.64ZM90.2739 14.6C89.5006 14.6 88.8739 14.8667 88.3939 15.4C87.9272 15.9333 87.6939 16.68 87.6939 17.64V18.28C87.6939 19.24 87.9339 19.9867 88.4139 20.52C88.8939 21.04 89.5206 21.3 90.2939 21.3C91.0672 21.3 91.7072 21.04 92.2139 20.52C92.7206 20 92.9739 19.2867 92.9739 18.38V17.52C92.9739 16.92 92.8472 16.4067 92.5939 15.98C92.3539 15.54 92.0272 15.2 91.6139 14.96C91.2139 14.72 90.7672 14.6 90.2739 14.6ZM97.0447 23V12.92H99.4647V23H97.0447ZM96.9047 11.36V8.96H99.5847V11.36H96.9047ZM105.028 23C104.281 23 103.701 22.9 103.288 22.7C102.874 22.5 102.581 22.2133 102.408 21.84C102.234 21.4533 102.148 20.98 102.148 20.42V10.46L104.568 10.02V20.06C104.568 20.5133 104.641 20.82 104.788 20.98C104.948 21.1267 105.248 21.2 105.688 21.2H106.928V23H105.028ZM100.228 14.72V12.92H107.048V14.72H100.228ZM109.767 18.24C109.767 19.28 110.007 20.0533 110.487 20.56C110.98 21.0533 111.607 21.3 112.367 21.3C113.14 21.3 113.767 21.0533 114.247 20.56C114.74 20.0533 114.987 19.3067 114.987 18.32V17.76C114.987 16.7067 114.74 15.92 114.247 15.4C113.753 14.8667 113.127 14.6 112.367 14.6C111.607 14.6 110.98 14.86 110.487 15.38C110.007 15.9 109.767 16.6667 109.767 17.68V18.24ZM117.447 18.24C117.447 19.2933 117.227 20.1933 116.787 20.94C116.36 21.6867 115.767 22.26 115.007 22.66C114.247 23.0467 113.367 23.24 112.367 23.24C111.38 23.24 110.507 23.0467 109.747 22.66C108.987 22.26 108.387 21.6933 107.947 20.96C107.52 20.2133 107.307 19.3333 107.307 18.32V17.76C107.307 16.6933 107.52 15.78 107.947 15.02C108.387 14.26 108.987 13.68 109.747 13.28C110.52 12.88 111.393 12.68 112.367 12.68C113.367 12.68 114.247 12.88 115.007 13.28C115.767 13.68 116.36 14.2533 116.787 15C117.227 15.7467 117.447 16.64 117.447 17.68V18.24ZM118.57 23V12.92H120.87V15.46H120.65C120.824 14.62 121.144 13.9667 121.61 13.5C122.09 13.0333 122.817 12.8 123.79 12.8H124.51V14.9H123.69C122.744 14.9 122.057 15.1267 121.63 15.58C121.204 16.0333 120.99 16.7267 120.99 17.66V23H118.57Z" fill="white"/>
<path d="M142.14 16.42C142.14 17.8333 141.82 19.0333 141.18 20.02C140.54 20.9933 139.673 21.7333 138.58 22.24C137.5 22.7467 136.287 23 134.94 23H130.78V9.4H134.94C136.3 9.4 137.52 9.65333 138.6 10.16C139.693 10.6533 140.553 11.3867 141.18 12.36C141.82 13.32 142.14 14.5 142.14 15.9V16.42ZM132.62 21.48H134.84C135.933 21.48 136.88 21.28 137.68 20.88C138.493 20.4667 139.12 19.8867 139.56 19.14C140 18.3933 140.22 17.5133 140.22 16.5V15.98C140.22 14.9267 139.993 14.0267 139.54 13.28C139.1 12.52 138.473 11.94 137.66 11.54C136.86 11.1267 135.92 10.92 134.84 10.92H132.62V21.48ZM145.275 18.28C145.275 19.4267 145.555 20.3 146.115 20.9C146.675 21.5 147.402 21.8 148.295 21.8C149.202 21.8 149.929 21.5 150.475 20.9C151.035 20.3 151.315 19.4533 151.315 18.36V17.8C151.315 16.6533 151.035 15.7667 150.475 15.14C149.915 14.5133 149.189 14.2 148.295 14.2C147.402 14.2 146.675 14.5133 146.115 15.14C145.555 15.7533 145.275 16.6133 145.275 17.72V18.28ZM153.135 18.28C153.135 19.2933 152.929 20.1733 152.515 20.92C152.115 21.6667 151.549 22.24 150.815 22.64C150.095 23.04 149.255 23.24 148.295 23.24C147.335 23.24 146.489 23.04 145.755 22.64C145.035 22.24 144.469 21.6733 144.055 20.94C143.655 20.2067 143.455 19.3467 143.455 18.36V17.8C143.455 16.7733 143.662 15.8867 144.075 15.14C144.489 14.38 145.055 13.7933 145.775 13.38C146.509 12.9667 147.349 12.76 148.295 12.76C149.255 12.76 150.095 12.9667 150.815 13.38C151.549 13.78 152.115 14.3533 152.515 15.1C152.929 15.8467 153.135 16.72 153.135 17.72V18.28ZM154.472 17.8C154.472 16.76 154.679 15.8667 155.092 15.12C155.519 14.36 156.099 13.78 156.832 13.38C157.579 12.9667 158.419 12.76 159.352 12.76C160.245 12.76 160.992 12.9267 161.592 13.26C162.192 13.58 162.652 13.9933 162.972 14.5C163.292 14.9933 163.479 15.5 163.532 16.02H161.692C161.599 15.5533 161.359 15.1333 160.972 14.76C160.585 14.3867 160.012 14.2 159.252 14.2C158.359 14.2 157.639 14.5 157.092 15.1C156.559 15.7 156.292 16.56 156.292 17.68V18.32C156.292 19.4133 156.565 20.2667 157.112 20.88C157.672 21.4933 158.399 21.8 159.292 21.8C160.039 21.8 160.612 21.6067 161.012 21.22C161.425 20.82 161.679 20.3533 161.772 19.82H163.572C163.519 20.3933 163.319 20.9467 162.972 21.48C162.639 22 162.159 22.4267 161.532 22.76C160.905 23.08 160.132 23.24 159.212 23.24C158.265 23.24 157.432 23.04 156.712 22.64C156.005 22.24 155.452 21.6733 155.052 20.94C154.665 20.1933 154.472 19.32 154.472 18.32V17.8ZM168.869 23.24C167.976 23.24 167.229 23.1 166.629 22.82C166.029 22.5267 165.576 22.14 165.269 21.66C164.962 21.1667 164.789 20.6267 164.749 20.04H166.529C166.582 20.5333 166.802 20.9667 167.189 21.34C167.576 21.7 168.182 21.88 169.009 21.88C169.676 21.88 170.209 21.7533 170.609 21.5C171.009 21.2333 171.209 20.8533 171.209 20.36C171.209 19.96 171.076 19.6533 170.809 19.44C170.556 19.2133 170.222 19.0533 169.809 18.96L167.569 18.42C166.822 18.2333 166.202 17.9467 165.709 17.56C165.229 17.16 164.989 16.58 164.989 15.82C164.989 15.1933 165.162 14.6533 165.509 14.2C165.856 13.7467 166.336 13.3933 166.949 13.14C167.562 12.8867 168.262 12.76 169.049 12.76C169.929 12.76 170.649 12.9067 171.209 13.2C171.782 13.48 172.209 13.8533 172.489 14.32C172.782 14.7867 172.942 15.28 172.969 15.8H171.269C171.216 15.3733 171.009 14.9867 170.649 14.64C170.302 14.2933 169.729 14.12 168.929 14.12C168.276 14.12 167.749 14.2533 167.349 14.52C166.949 14.7867 166.749 15.16 166.749 15.64C166.749 16.0133 166.876 16.2867 167.129 16.46C167.396 16.6333 167.729 16.7733 168.129 16.88L170.369 17.42C171.156 17.6067 171.782 17.9133 172.249 18.34C172.729 18.7667 172.969 19.38 172.969 20.18C172.969 20.8333 172.796 21.3867 172.449 21.84C172.102 22.2933 171.622 22.64 171.009 22.88C170.396 23.12 169.682 23.24 168.869 23.24Z" fill="#828282"/>
</svg>
