<svg width="55" height="65" viewBox="0 0 55 65" fill="none" xmlns="http://www.w3.org/2000/svg">
<path d="M1 16.6587L28.0483 1.15869L54 16.6587V47.2896L28.0483 63.1587L1 47.2896V16.6587Z" fill="white" stroke="#888888" stroke-opacity="0.1" stroke-width="2"/>
<path d="M31.2352 42.1587C31.6193 41.7293 31.8716 41.1985 31.9621 40.6295C32.0525 40.0605 31.9772 39.4776 31.7452 38.9503C31.5132 38.423 31.1343 37.9736 30.6537 37.6559C30.1731 37.3382 29.6112 37.1656 29.0352 37.1587" fill="white" fill-opacity="0.4"/>
<path d="M32 40.1587C32 39.3631 32.3161 38.6 32.8787 38.0374C33.4413 37.4748 34.2044 37.1587 35 37.1587H36C36.5304 37.1587 37.0391 36.948 37.4142 36.5729C37.7893 36.1978 38 35.6891 38 35.1587V33.1587C38 32.0978 37.5786 31.0804 36.8284 30.3303C36.0783 29.5801 35.0609 29.1587 34 29.1587V24.1587" fill="white" fill-opacity="0.4"/>
<path d="M34 33.1587H34.01H34Z" fill="white" fill-opacity="0.4"/>
<path d="M34 26.1587C32.9391 26.1587 31.9217 26.5801 31.1716 27.3303C30.4214 28.0804 30 29.0978 30 30.1587C28.1435 30.1587 26.363 30.8962 25.0503 32.209C23.7375 33.5217 23 35.3022 23 37.1587C23 32.1587 27 32.1587 27 26.6587C27 26.0677 26.8836 25.4826 26.6575 24.9366C26.4313 24.3907 26.0998 23.8946 25.682 23.4767C25.2641 23.0589 24.768 22.7274 24.2221 22.5012C23.6761 22.2751 23.091 22.1587 22.5 22.1587C21.909 22.1587 21.3239 22.2751 20.7779 22.5012C20.232 22.7274 19.7359 23.0589 19.318 23.4767C18.9002 23.8946 18.5687 24.3907 18.3425 24.9366C18.1164 25.4826 18 26.0677 18 26.6587C18 27.3217 18.2634 27.9576 18.7322 28.4265C19.2011 28.8953 19.837 29.1587 20.5 29.1587C21.163 29.1587 21.7989 28.8953 22.2678 28.4265C22.7366 27.9576 23 27.3217 23 26.6587C23 30.1587 19 31.1587 19 37.1587C19 39.9587 21.2 42.1587 24 42.1587H34" fill="white" fill-opacity="0.4"/>
<path d="M31.2352 42.1587C31.6193 41.7293 31.8716 41.1985 31.9621 40.6295C32.0525 40.0605 31.9772 39.4776 31.7452 38.9503C31.5132 38.423 31.1343 37.9736 30.6537 37.6559C30.1731 37.3382 29.6112 37.1656 29.0352 37.1587M32 40.1587C32 39.3631 32.3161 38.6 32.8787 38.0374C33.4413 37.4748 34.2044 37.1587 35 37.1587H36C36.5304 37.1587 37.0391 36.948 37.4142 36.5729C37.7893 36.1978 38 35.6891 38 35.1587V33.1587C38 32.0978 37.5786 31.0804 36.8284 30.3303C36.0783 29.5801 35.0609 29.1587 34 29.1587V24.1587M34 33.1587H34.01M34 26.1587C32.9391 26.1587 31.9217 26.5801 31.1716 27.3303C30.4214 28.0804 30 29.0978 30 30.1587C28.1435 30.1587 26.363 30.8962 25.0503 32.209C23.7375 33.5217 23 35.3022 23 37.1587C23 32.1587 27 32.1587 27 26.6587C27 26.0677 26.8836 25.4826 26.6575 24.9366C26.4313 24.3907 26.0998 23.8946 25.682 23.4767C25.2641 23.0589 24.768 22.7274 24.2221 22.5012C23.6761 22.2751 23.091 22.1587 22.5 22.1587C21.909 22.1587 21.3239 22.2751 20.7779 22.5012C20.232 22.7274 19.7359 23.0589 19.318 23.4767C18.9002 23.8946 18.5687 24.3907 18.3425 24.9366C18.1164 25.4826 18 26.0677 18 26.6587C18 27.3217 18.2634 27.9576 18.7322 28.4265C19.2011 28.8953 19.837 29.1587 20.5 29.1587C21.163 29.1587 21.7989 28.8953 22.2678 28.4265C22.7366 27.9576 23 27.3217 23 26.6587C23 30.1587 19 31.1587 19 37.1587C19 39.9587 21.2 42.1587 24 42.1587H34" stroke="#038677" stroke-width="2" stroke-linecap="round" stroke-linejoin="round"/>
</svg>
