<svg width="53" height="62" viewBox="0 0 53 62" fill="none" xmlns="http://www.w3.org/2000/svg">
<path d="M0 15.5L27.0483 0L53 15.5V46.131L27.0483 62L0 46.131V15.5Z" fill="#0A0C0D"/>
<path d="M52 16.0664V45.5693L27.0371 60.834L1 45.5576V16.0781L27.0371 1.1582L52 16.0664Z" stroke="#888888" stroke-opacity="0.1" stroke-width="2"/>
<path d="M30.2352 41C30.6193 40.5706 30.8716 40.0398 30.9621 39.4708C31.0525 38.9018 30.9772 38.3189 30.7452 37.7916C30.5132 37.2643 30.1343 36.8149 29.6537 36.4972C29.1731 36.1795 28.6112 36.0069 28.0352 36M31 39C31 38.2044 31.3161 37.4413 31.8787 36.8787C32.4413 36.3161 33.2044 36 34 36H35C35.5304 36 36.0391 35.7893 36.4142 35.4142C36.7893 35.0391 37 34.5304 37 34V32C37 30.9391 36.5786 29.9217 35.8284 29.1716C35.0783 28.4214 34.0609 28 33 28V23M33 32H33.01M33 25C31.9391 25 30.9217 25.4214 30.1716 26.1716C29.4214 26.9217 29 27.9391 29 29C27.1435 29 25.363 29.7375 24.0503 31.0503C22.7375 32.363 22 34.1435 22 36C22 31 26 31 26 25.5C26 24.909 25.8836 24.3239 25.6575 23.7779C25.4313 23.232 25.0998 22.7359 24.682 22.318C24.2641 21.9002 23.768 21.5687 23.2221 21.3425C22.6761 21.1164 22.091 21 21.5 21C20.909 21 20.3239 21.1164 19.7779 21.3425C19.232 21.5687 18.7359 21.9002 18.318 22.318C17.9002 22.7359 17.5687 23.232 17.3425 23.7779C17.1164 24.3239 17 24.909 17 25.5C17 26.163 17.2634 26.7989 17.7322 27.2678C18.2011 27.7366 18.837 28 19.5 28C20.163 28 20.7989 27.7366 21.2678 27.2678C21.7366 26.7989 22 26.163 22 25.5C22 29 18 30 18 36C18 38.8 20.2 41 23 41H33" stroke="#08C983" stroke-width="2" stroke-linecap="round" stroke-linejoin="round"/>
</svg>
