<svg width="53" height="62" viewBox="0 0 53 62" fill="none" xmlns="http://www.w3.org/2000/svg">
<path d="M0 15.5L27.0483 0L53 15.5V46.131L27.0483 62L0 46.131V15.5Z" fill="#0A0C0D"/>
<path d="M52 16.0664V45.5693L27.0371 60.834L1 45.5576V16.0781L27.0371 1.1582L52 16.0664Z" stroke="#888888" stroke-opacity="0.1" stroke-width="2"/>
<path d="M25.9941 25C27.0987 25 27.9941 24.1046 27.9941 23C27.9941 21.8954 27.0987 21 25.9941 21C24.8896 21 23.9941 21.8954 23.9941 23C23.9941 24.1046 24.8896 25 25.9941 25Z" stroke="#08C983" stroke-width="2" stroke-linecap="round" stroke-linejoin="round"/>
<path d="M32.9941 29C34.0987 29 34.9941 28.1046 34.9941 27C34.9941 25.8954 34.0987 25 32.9941 25C31.8895 25 30.9941 25.8954 30.9941 27C30.9941 28.1046 31.8895 29 32.9941 29Z" stroke="#08C983" stroke-width="2" stroke-linecap="round" stroke-linejoin="round"/>
<path d="M34.9941 37C36.0987 37 36.9941 36.1046 36.9941 35C36.9941 33.8954 36.0987 33 34.9941 33C33.8895 33 32.9941 33.8954 32.9941 35C32.9941 36.1046 33.8895 37 34.9941 37Z" stroke="#08C983" stroke-width="2" stroke-linecap="round" stroke-linejoin="round"/>
<path d="M23.9939 29C24.6505 29 25.3006 29.1293 25.9073 29.3806C26.5139 29.6319 27.0651 30.0002 27.5294 30.4645C27.9937 30.9288 28.362 31.48 28.6132 32.0866C28.8645 32.6932 28.9938 33.3434 28.9938 34V37.5C28.9936 38.3365 28.6937 39.1452 28.1487 39.7796C27.6036 40.4141 26.8493 40.8324 26.0224 40.9587C25.1956 41.085 24.3508 40.9111 23.6412 40.4683C22.9315 40.0255 22.4039 39.3432 22.1539 38.545C21.7272 37.1683 20.8272 36.2667 19.4539 35.84C18.6561 35.5901 17.9741 35.0629 17.5313 34.3538C17.0884 33.6446 16.9141 32.8004 17.0398 31.9739C17.1655 31.1473 17.5828 30.3931 18.2164 29.8476C18.85 29.3021 19.6579 29.0015 20.4939 29H23.9939Z" stroke="#08C983" stroke-width="2" stroke-linecap="round" stroke-linejoin="round"/>
</svg>
