<svg width="24" height="24" viewBox="0 0 24 24" fill="none" xmlns="http://www.w3.org/2000/svg">
<path d="M11 6C12.1046 6 13 5.10457 13 4C13 2.89543 12.1046 2 11 2C9.89543 2 9 2.89543 9 4C9 5.10457 9.89543 6 11 6Z" stroke="#08C983" stroke-width="2" stroke-linecap="round" stroke-linejoin="round"/>
<path d="M18 10C19.1046 10 20 9.10457 20 8C20 6.89543 19.1046 6 18 6C16.8954 6 16 6.89543 16 8C16 9.10457 16.8954 10 18 10Z" stroke="#08C983" stroke-width="2" stroke-linecap="round" stroke-linejoin="round"/>
<path d="M20 18C21.1046 18 22 17.1046 22 16C22 14.8954 21.1046 14 20 14C18.8954 14 18 14.8954 18 16C18 17.1046 18.8954 18 20 18Z" stroke="#08C983" stroke-width="2" stroke-linecap="round" stroke-linejoin="round"/>
<path d="M8.99975 10C9.65636 10 10.3065 10.1293 10.9132 10.3806C11.5198 10.6319 12.071 11.0002 12.5353 11.4645C12.9996 11.9288 13.3679 12.48 13.6191 13.0866C13.8704 13.6932 13.9997 14.3434 13.9997 15V18.5C13.9995 19.3365 13.6996 20.1452 13.1546 20.7796C12.6095 21.4141 11.8552 21.8324 11.0283 21.9587C10.2015 22.085 9.3567 21.9111 8.64704 21.4683C7.93738 21.0255 7.40976 20.3432 7.15975 19.545C6.73308 18.1683 5.83308 17.2667 4.45975 16.84C3.66193 16.5901 2.97991 16.0629 2.53711 15.3538C2.0943 14.6446 1.91996 13.8004 2.04564 12.9739C2.17131 12.1473 2.58869 11.3931 3.22226 10.8476C3.85582 10.3021 4.66372 10.0015 5.49975 10H8.99975Z" stroke="#08C983" stroke-width="2" stroke-linecap="round" stroke-linejoin="round"/>
</svg>
