<svg width="55" height="65" viewBox="0 0 55 65" fill="none" xmlns="http://www.w3.org/2000/svg">
<path d="M1 16.6587L28.0483 1.15869L54 16.6587V47.2896L28.0483 63.1587L1 47.2896V16.6587Z" fill="white" stroke="#888888" stroke-opacity="0.1" stroke-width="2"/>
<path d="M26.9941 26.1587C28.0987 26.1587 28.9941 25.2633 28.9941 24.1587C28.9941 23.0541 28.0987 22.1587 26.9941 22.1587C25.8896 22.1587 24.9941 23.0541 24.9941 24.1587C24.9941 25.2633 25.8896 26.1587 26.9941 26.1587Z" stroke="#038677" stroke-width="2" stroke-linecap="round" stroke-linejoin="round"/>
<path d="M33.9941 30.1587C35.0987 30.1587 35.9941 29.2633 35.9941 28.1587C35.9941 27.0541 35.0987 26.1587 33.9941 26.1587C32.8895 26.1587 31.9941 27.0541 31.9941 28.1587C31.9941 29.2633 32.8895 30.1587 33.9941 30.1587Z" stroke="#038677" stroke-width="2" stroke-linecap="round" stroke-linejoin="round"/>
<path d="M35.9941 38.1587C37.0987 38.1587 37.9941 37.2633 37.9941 36.1587C37.9941 35.0541 37.0987 34.1587 35.9941 34.1587C34.8895 34.1587 33.9941 35.0541 33.9941 36.1587C33.9941 37.2633 34.8895 38.1587 35.9941 38.1587Z" stroke="#038677" stroke-width="2" stroke-linecap="round" stroke-linejoin="round"/>
<path d="M24.9939 30.1587C25.6505 30.1587 26.3006 30.288 26.9073 30.5393C27.5139 30.7906 28.0651 31.1589 28.5294 31.6232C28.9937 32.0875 29.362 32.6387 29.6132 33.2453C29.8645 33.8519 29.9938 34.5021 29.9938 35.1587V38.6587C29.9936 39.4952 29.6937 40.3039 29.1487 40.9383C28.6036 41.5728 27.8493 41.9911 27.0224 42.1174C26.1956 42.2437 25.3508 42.0698 24.6412 41.627C23.9315 41.1842 23.4039 40.5019 23.1539 39.7037C22.7272 38.327 21.8272 37.4254 20.4539 36.9987C19.6561 36.7488 18.9741 36.2216 18.5313 35.5125C18.0884 34.8033 17.9141 33.9591 18.0398 33.1326C18.1655 32.306 18.5828 31.5518 19.2164 31.0063C19.85 30.4608 20.6579 30.1602 21.4939 30.1587H24.9939Z" stroke="#038677" stroke-width="2" stroke-linecap="round" stroke-linejoin="round"/>
</svg>
